<?xml version="1.0" encoding="UTF-8" standalone="no"?>
<!-- Created with Inkscape (http://www.inkscape.org/) -->

<svg
   xmlns:dc="http://purl.org/dc/elements/1.1/"
   xmlns:cc="http://creativecommons.org/ns#"
   xmlns:rdf="http://www.w3.org/1999/02/22-rdf-syntax-ns#"
   xmlns:svg="http://www.w3.org/2000/svg"
   xmlns="http://www.w3.org/2000/svg"
   xmlns:xlink="http://www.w3.org/1999/xlink"
   version="1.1"
   width="250"
   height="250"
   id="svg1901">
  <defs
     id="defs1903"><clipPath
   id="clipPath39206">
  <path
     d="m 603.306,186.327 129.924,0 0,61.236 -129.924,0 0,-61.236 z"
     id="path39208" />
</clipPath>
<clipPath
   id="clipPath39214">
  <path
     d="m 576.151,283.105 177.194,0 0,-125.289 -177.194,0 0,125.289 z"
     id="path39216" />
</clipPath>
<clipPath
   id="clipPath39222">
  <path
     d="m 642.867,204.533 -27.909,0.276 0.285,28.828 27.908,-0.275 -0.284,-28.829 z"
     id="path39224" />
</clipPath>
<clipPath
   id="clipPath39234">
  <path
     d="m 639.816,207.213 -28.721,20.652 22.457,31.23 28.721,-20.652 -22.457,-31.23 z"
     id="path39236" />
</clipPath>
<clipPath
   id="clipPath39246">
  <path
     d="m 635.98,213.585 -32.434,0 0,47.482 32.434,0 0,-47.482 z"
     id="path39248" />
</clipPath>
<clipPath
   id="clipPath39254">
  <path
     d="m 604.42,213.585 31.56,0 0,32.741 -31.56,0 0,-32.741 z"
     id="path39256" />
</clipPath>
<clipPath
   id="clipPath39264">
  <path
     d="m 615.993,213.585 19.986,0 0,20.976 -19.986,0 0,-20.976 z"
     id="path39266" />
</clipPath>
<radialGradient
   cx="23.201941"
   cy="27.096155"
   r="23.555494"
   fx="23.201941"
   fy="27.096155"
   id="radialGradient4270"
   xlink:href="#linearGradient4264"
   gradientUnits="userSpaceOnUse"
   gradientTransform="matrix(1,0,0,0.651032,0,9.455693)" />
<linearGradient
   id="linearGradient4184">
  <stop
     id="stop4186"
     style="stop-color:#838383;stop-opacity:1"
     offset="0" />
  <stop
     id="stop4188"
     style="stop-color:#bbbbbb;stop-opacity:0"
     offset="1" />
</linearGradient>
<linearGradient
   id="linearGradient4228">
  <stop
     id="stop4230"
     style="stop-color:#bbbbbb;stop-opacity:1"
     offset="0" />
  <stop
     id="stop4232"
     style="stop-color:#9f9f9f;stop-opacity:1"
     offset="1" />
</linearGradient>
<linearGradient
   id="linearGradient4244">
  <stop
     id="stop4246"
     style="stop-color:#e4e4e4;stop-opacity:1"
     offset="0" />
  <stop
     id="stop4248"
     style="stop-color:#d3d3d3;stop-opacity:1"
     offset="1" />
</linearGradient>
<linearGradient
   id="linearGradient4264">
  <stop
     id="stop4266"
     style="stop-color:#000000;stop-opacity:1"
     offset="0" />
  <stop
     id="stop4268"
     style="stop-color:#000000;stop-opacity:0"
     offset="1" />
</linearGradient>
<linearGradient
   id="linearGradient4274">
  <stop
     id="stop4276"
     style="stop-color:#ffffff;stop-opacity:0.25490198"
     offset="0" />
  <stop
     id="stop4278"
     style="stop-color:#ffffff;stop-opacity:1"
     offset="1" />
</linearGradient>
<linearGradient
   id="linearGradient2555">
  <stop
     id="stop2557"
     style="stop-color:#ffffff;stop-opacity:1"
     offset="0" />
  <stop
     id="stop2561"
     style="stop-color:#e6e6e6;stop-opacity:1"
     offset="0.5" />
  <stop
     id="stop2563"
     style="stop-color:#ffffff;stop-opacity:1"
     offset="0.75" />
  <stop
     id="stop2565"
     style="stop-color:#e1e1e1;stop-opacity:1"
     offset="0.84166664" />
  <stop
     id="stop2559"
     style="stop-color:#ffffff;stop-opacity:1"
     offset="1" />
</linearGradient>
<linearGradient
   id="linearGradient6965">
  <stop
     id="stop6967"
     style="stop-color:#dddddd;stop-opacity:1"
     offset="0" />
  <stop
     id="stop6969"
     style="stop-color:#fdfdfd;stop-opacity:1"
     offset="1" />
</linearGradient>
<linearGradient
   id="linearGradient5048">
  <stop
     id="stop5050"
     style="stop-color:#000000;stop-opacity:0"
     offset="0" />
  <stop
     id="stop5056"
     style="stop-color:#000000;stop-opacity:1"
     offset="0.5" />
  <stop
     id="stop5052"
     style="stop-color:#000000;stop-opacity:0"
     offset="1" />
</linearGradient>

		
	<clipPath
   id="SVGID_2_">
			<use
   id="use11"
   style="overflow:visible"
   x="0"
   y="0"
   width="841.89001"
   height="595.276"
   xlink:href="#SVGID_1_" />

		</clipPath>

		<defs
   id="defs7">
			
				<rect
   width="19.240999"
   height="19.875999"
   x="726.43799"
   y="57.983002"
   transform="matrix(-1,-0.0099,0.0099,-1,1471.4109,143.1051)"
   id="SVGID_1_" />

		</defs>


		<clipPath
   id="SVGID_4_">
			<use
   id="use21"
   style="overflow:visible"
   x="0"
   y="0"
   width="841.89001"
   height="595.276"
   xlink:href="#SVGID_3_" />

		</clipPath>

		<defs
   id="defs17">
			
				<rect
   width="24.389"
   height="26.521999"
   x="729.12402"
   y="44.959999"
   transform="matrix(-0.8119,-0.5838,0.5838,-0.8119,1309.1821,538.299)"
   id="SVGID_3_" />

		</defs>


		<clipPath
   id="SVGID_6_">
			<use
   id="use31"
   style="overflow:visible"
   x="0"
   y="0"
   width="841.89001"
   height="595.276"
   xlink:href="#SVGID_5_" />

		</clipPath>

		<defs
   id="defs27">
			<rect
   width="21.57"
   height="32.737"
   x="719.14801"
   y="38.977001"
   id="SVGID_5_" />

		</defs>


		<clipPath
   id="SVGID_8_">
			<use
   id="use41"
   style="overflow:visible"
   x="0"
   y="0"
   width="841.89001"
   height="595.276"
   xlink:href="#SVGID_7_" />

		</clipPath>

		<defs
   id="defs37">
			<rect
   width="82.778999"
   height="57.334999"
   x="719.14801"
   y="38.977001"
   id="SVGID_7_" />

		</defs>


		<linearGradient
   x1="28.061466"
   y1="31.431349"
   x2="28.061466"
   y2="36.437492"
   id="linearGradient6971"
   xlink:href="#linearGradient6965-4"
   gradientUnits="userSpaceOnUse" />
<linearGradient
   x1="12.25"
   y1="18.25"
   x2="7"
   y2="21.118431"
   id="linearGradient6931"
   xlink:href="#linearGradient6925"
   gradientUnits="userSpaceOnUse" />
<linearGradient
   x1="14.751649"
   y1="15.868432"
   x2="8.8953285"
   y2="16.743431"
   id="linearGradient6907"
   xlink:href="#linearGradient6901"
   gradientUnits="userSpaceOnUse" />
<linearGradient
   x1="33.431175"
   y1="31.964777"
   x2="21.747974"
   y2="11.780679"
   id="linearGradient2553"
   xlink:href="#linearGradient2555-5"
   gradientUnits="userSpaceOnUse" />
<linearGradient
   x1="23.688078"
   y1="11.318835"
   x2="23.688078"
   y2="26.357183"
   id="linearGradient4272"
   xlink:href="#linearGradient4274-1"
   gradientUnits="userSpaceOnUse"
   gradientTransform="translate(0,5.125)" />
<radialGradient
   cx="23.201941"
   cy="27.096155"
   r="23.555494"
   fx="23.201941"
   fy="27.096155"
   id="radialGradient4270-3"
   xlink:href="#linearGradient4264-0"
   gradientUnits="userSpaceOnUse"
   gradientTransform="matrix(1,0,0,0.651032,0,9.455693)" />
<linearGradient
   x1="12.378357"
   y1="4.433136"
   x2="44.0961"
   y2="47.620636"
   id="linearGradient4260"
   xlink:href="#linearGradient4254"
   gradientUnits="userSpaceOnUse"
   gradientTransform="translate(0,5.125)" />
<radialGradient
   cx="15.571491"
   cy="2.958519"
   r="20.935818"
   fx="15.571491"
   fy="2.958519"
   id="radialGradient4250"
   xlink:href="#linearGradient4244-9"
   gradientUnits="userSpaceOnUse"
   gradientTransform="matrix(1.286242,0.781698,-0.710782,1.169552,-2.354348,0.24814)" />
<linearGradient
   x1="12.277412"
   y1="37.205811"
   x2="12.221823"
   y2="33.758667"
   id="linearGradient4242"
   xlink:href="#linearGradient4236"
   gradientUnits="userSpaceOnUse"
   gradientTransform="translate(0,5.125)" />
<linearGradient
   x1="7.6046205"
   y1="28.481176"
   x2="36.183067"
   y2="40.943935"
   id="linearGradient4234"
   xlink:href="#linearGradient4228-3"
   gradientUnits="userSpaceOnUse"
   gradientTransform="translate(0,5.125)" />
<linearGradient
   x1="7.0625"
   y1="35.28125"
   x2="24.6875"
   y2="35.28125"
   id="linearGradient4209"
   xlink:href="#linearGradient4184-1"
   gradientUnits="userSpaceOnUse"
   gradientTransform="translate(0.795493,3.79918)" />
<linearGradient
   id="linearGradient4184-1">
  <stop
     id="stop4186-4"
     style="stop-color:#838383;stop-opacity:1"
     offset="0" />
  <stop
     id="stop4188-0"
     style="stop-color:#bbbbbb;stop-opacity:0"
     offset="1" />
</linearGradient>
<linearGradient
   id="linearGradient4228-3">
  <stop
     id="stop4230-5"
     style="stop-color:#bbbbbb;stop-opacity:1"
     offset="0" />
  <stop
     id="stop4232-6"
     style="stop-color:#9f9f9f;stop-opacity:1"
     offset="1" />
</linearGradient>
<linearGradient
   id="linearGradient4236">
  <stop
     id="stop4238"
     style="stop-color:#eeeeee;stop-opacity:1"
     offset="0" />
  <stop
     id="stop4240"
     style="stop-color:#eeeeee;stop-opacity:0"
     offset="1" />
</linearGradient>
<linearGradient
   id="linearGradient4244-9">
  <stop
     id="stop4246-7"
     style="stop-color:#e4e4e4;stop-opacity:1"
     offset="0" />
  <stop
     id="stop4248-4"
     style="stop-color:#d3d3d3;stop-opacity:1"
     offset="1" />
</linearGradient>
<linearGradient
   id="linearGradient4254">
  <stop
     id="stop4256"
     style="stop-color:#ffffff;stop-opacity:1"
     offset="0" />
  <stop
     id="stop4258"
     style="stop-color:#ffffff;stop-opacity:0"
     offset="1" />
</linearGradient>
<linearGradient
   id="linearGradient4264-0">
  <stop
     id="stop4266-2"
     style="stop-color:#000000;stop-opacity:1"
     offset="0" />
  <stop
     id="stop4268-2"
     style="stop-color:#000000;stop-opacity:0"
     offset="1" />
</linearGradient>
<linearGradient
   id="linearGradient4274-1">
  <stop
     id="stop4276-6"
     style="stop-color:#ffffff;stop-opacity:0.25490198"
     offset="0" />
  <stop
     id="stop4278-2"
     style="stop-color:#ffffff;stop-opacity:1"
     offset="1" />
</linearGradient>
<linearGradient
   id="linearGradient2555-5">
  <stop
     id="stop2557-7"
     style="stop-color:#ffffff;stop-opacity:1"
     offset="0" />
  <stop
     id="stop2561-4"
     style="stop-color:#e6e6e6;stop-opacity:1"
     offset="0.5" />
  <stop
     id="stop2563-1"
     style="stop-color:#ffffff;stop-opacity:1"
     offset="0.75" />
  <stop
     id="stop2565-2"
     style="stop-color:#e1e1e1;stop-opacity:1"
     offset="0.84166664" />
  <stop
     id="stop2559-2"
     style="stop-color:#ffffff;stop-opacity:1"
     offset="1" />
</linearGradient>
<radialGradient
   cx="24.837126"
   cy="36.421127"
   r="15.644737"
   fx="24.837126"
   fy="36.421127"
   id="radialGradient8668"
   xlink:href="#linearGradient8662"
   gradientUnits="userSpaceOnUse"
   gradientTransform="matrix(1,0,0,0.536723,0,16.87306)" />
<linearGradient
   id="linearGradient8662">
  <stop
     id="stop8664"
     style="stop-color:#000000;stop-opacity:1"
     offset="0" />
  <stop
     id="stop8666"
     style="stop-color:#000000;stop-opacity:0"
     offset="1" />
</linearGradient>
<linearGradient
   x1="33.059906"
   y1="27.394117"
   x2="12.624337"
   y2="12.583769"
   id="linearGradient1764"
   xlink:href="#linearGradient2187"
   gradientUnits="userSpaceOnUse"
   gradientTransform="matrix(0.914114,0,0,0.914114,-3.868698,-2.706902)" />
<linearGradient
   id="linearGradient2187">
  <stop
     id="stop2189"
     style="stop-color:#ffffff;stop-opacity:1"
     offset="0" />
  <stop
     id="stop2191"
     style="stop-color:#ffffff;stop-opacity:0"
     offset="1" />
</linearGradient>
<radialGradient
   cx="23.447077"
   cy="6.4576745"
   r="19.0625"
   fx="23.447077"
   fy="6.4576745"
   id="radialGradient4997"
   xlink:href="#linearGradient4991"
   gradientUnits="userSpaceOnUse"
   gradientTransform="matrix(-1.314471,-0.01006312,-0.01022964,1.336221,46.22108,-4.909887)" />
<linearGradient
   id="linearGradient4991">
  <stop
     id="stop4993"
     style="stop-color:#ffffff;stop-opacity:1"
     offset="0" />
  <stop
     id="stop4995"
     style="stop-color:#ffffff;stop-opacity:0"
     offset="1" />
</linearGradient>
<linearGradient
   id="linearGradient6901">
  <stop
     id="stop6903"
     style="stop-color:#3465a4;stop-opacity:1"
     offset="0" />
  <stop
     id="stop6905"
     style="stop-color:#3465a4;stop-opacity:0"
     offset="1" />
</linearGradient>
<linearGradient
   id="linearGradient6925">
  <stop
     id="stop6927"
     style="stop-color:#204a87;stop-opacity:1"
     offset="0" />
  <stop
     id="stop6929"
     style="stop-color:#204a87;stop-opacity:0"
     offset="1" />
</linearGradient>
<linearGradient
   id="linearGradient6965-4">
  <stop
     id="stop6967-1"
     style="stop-color:#dddddd;stop-opacity:1"
     offset="0" />
  <stop
     id="stop6969-9"
     style="stop-color:#fdfdfd;stop-opacity:1"
     offset="1" />
</linearGradient>
<linearGradient
   x1="302.85715"
   y1="366.64789"
   x2="302.85715"
   y2="609.50507"
   id="linearGradient5027"
   xlink:href="#linearGradient5048-1"
   gradientUnits="userSpaceOnUse"
   gradientTransform="matrix(2.774389,0,0,1.969706,-1892.179,-872.8854)" />
<linearGradient
   id="linearGradient5048-1">
  <stop
     id="stop5050-3"
     style="stop-color:#000000;stop-opacity:0"
     offset="0" />
  <stop
     id="stop5056-4"
     style="stop-color:#000000;stop-opacity:1"
     offset="0.5" />
  <stop
     id="stop5052-9"
     style="stop-color:#000000;stop-opacity:0"
     offset="1" />
</linearGradient>
<radialGradient
   cx="605.71429"
   cy="486.64789"
   r="117.14286"
   fx="605.71429"
   fy="486.64789"
   id="radialGradient5029"
   xlink:href="#linearGradient5060"
   gradientUnits="userSpaceOnUse"
   gradientTransform="matrix(2.774389,0,0,1.969706,-1891.633,-872.8854)" />
<linearGradient
   id="linearGradient5060">
  <stop
     id="stop5062"
     style="stop-color:#000000;stop-opacity:1"
     offset="0" />
  <stop
     id="stop5064"
     style="stop-color:#000000;stop-opacity:0"
     offset="1" />
</linearGradient>
<radialGradient
   cx="605.71429"
   cy="486.64789"
   r="117.14286"
   fx="605.71429"
   fy="486.64789"
   id="radialGradient5031"
   xlink:href="#linearGradient5060"
   gradientUnits="userSpaceOnUse"
   gradientTransform="matrix(-2.774389,0,0,1.969706,112.7623,-872.8854)" />
</defs>
  <metadata
     id="metadata1906">
    <rdf:RDF>
      <cc:Work
         rdf:about="">
        <dc:format>image/svg+xml</dc:format>
        <dc:type
           rdf:resource="http://purl.org/dc/dcmitype/StillImage" />
        <dc:title></dc:title>
      </cc:Work>
    </rdf:RDF>
  </metadata>
  <g
     transform="translate(0,-802.36218)"
     id="layer1">
    <g
       transform="translate(5.3129515,800.64338)"
       id="layer1-9">
      <g
         transform="matrix(0.49056199,0,0,0.49056199,-73.185157,1.4485185)"
         id="g3670">
        <path
           d="m 732.962,75.349 c -4.324,-12.148 13.268,-18.41 17.591,-6.262"
           transform="matrix(13.671097,0,0,13.671097,-9687.5108,-668.3981)"
           clip-path="url(#SVGID_2_)"
           id="path13"
           style="fill:none;stroke:#84a4d3;stroke-width:4.05499983" />
        <path
           d="m 728.894,78.086 c -6.44,-18.091 19.694,-27.394 26.135,-9.303"
           transform="matrix(13.671097,0,0,13.671097,-9687.5108,-668.3981)"
           clip-path="url(#SVGID_4_)"
           id="path23"
           style="fill:none;stroke:#4461a6;stroke-width:6.08300018" />
        <path
           d="M 724.461,78.343 C 715.993,54.555 750.566,42.248 759.034,66.036"
           transform="matrix(13.671097,0,0,13.671097,-9687.5108,-668.3981)"
           clip-path="url(#SVGID_6_)"
           id="path33"
           style="fill:none;stroke:#28335d;stroke-width:8.10999966" />
        <g
           transform="matrix(6.0085462,-1.0144329,1.0144329,6.0085462,323.33469,240.6723)"
           id="g4019">
          <g
             id="layer2">
            <g
               transform="matrix(0.02411405,0,0,0.01929202,45.48953,41.75228)"
               id="g5022"
               style="display:inline">
              <rect
                 width="1339.6335"
                 height="478.35718"
                 x="-1559.2523"
                 y="-150.69685"
                 id="rect4173"
                 style="opacity:0.40206185;color:#000000;fill:url(#linearGradient5027);fill-opacity:1;fill-rule:nonzero;stroke:none;stroke-width:1;marker:none;visibility:visible;display:inline;overflow:visible" />
              <path
                 d="m -219.61876,-150.68038 c 0,0 0,478.33079 0,478.33079 142.874166,0.90045 345.40022,-107.16966 345.40014,-239.196175 0,-132.026537 -159.436816,-239.134595 -345.40014,-239.134615 z"
                 id="path5058"
                 style="opacity:0.40206185;color:#000000;fill:url(#radialGradient5029);fill-opacity:1;fill-rule:nonzero;stroke:none;stroke-width:1;marker:none;visibility:visible;display:inline;overflow:visible" />
              <path
                 d="m -1559.2523,-150.68038 c 0,0 0,478.33079 0,478.33079 -142.8742,0.90045 -345.4002,-107.16966 -345.4002,-239.196175 0,-132.026537 159.4368,-239.134595 345.4002,-239.134615 z"
                 id="path5018"
                 style="opacity:0.40206185;color:#000000;fill:url(#radialGradient5031);fill-opacity:1;fill-rule:nonzero;stroke:none;stroke-width:1;marker:none;visibility:visible;display:inline;overflow:visible" />
            </g>
            <path
               d="m 11.28569,13.087628 c -0.625,0 -1.031249,0.29018 -1.281248,0.843753 -10e-7,0 -6.4687505,17.103557 -6.4687505,17.103557 0,0 -0.25,0.671559 -0.25,1.78125 0,0 0,9.649968 0,9.649968 0,1.082613 0.6577855,1.625002 1.65625,1.625 l 38.5624985,0 c 0.984853,0 1.59375,-0.71818 1.59375,-1.84375 l 0,-9.649968 c 0,0 0.105963,-0.770423 -0.09375,-1.3125 L 38.28569,14.087631 c -0.184525,-0.511906 -0.636905,-0.988098 -1.125,-1.000003 l -25.875,0 z"
               id="path4196"
               style="fill:none;stroke:#535353;stroke-width:2;stroke-linecap:round;stroke-linejoin:round;stroke-miterlimit:4;stroke-opacity:1;stroke-dasharray:none" />
            <path
               d="m 3.2735915,32.121812 0.7646021,-0.692215 37.6096894,0.0625 3.462407,0.317298 0,10.438532 c 0,1.125569 -0.607018,1.843331 -1.591871,1.843331 l -38.5829876,0 c -0.9984647,0 -1.6618399,-0.542051 -1.6618399,-1.624664 l 0,-10.344782 z"
               id="path4170"
               style="fill:url(#linearGradient4234);fill-opacity:1;fill-rule:evenodd;stroke:none" />
            <path
               d="m 3.5490842,31.039404 c -0.7142857,1.464286 -6.156e-4,2.392857 1.0357143,2.392857 0,0 38.9999985,0 38.9999985,0 1.119047,-0.02381 1.845238,-1.011905 1.428571,-2.142858 L 38.299082,14.078704 C 38.114558,13.566798 37.64432,13.090606 37.156225,13.078701 l -25.857142,0 c -0.625,0 -1.035714,0.303573 -1.285713,0.857146 0,0 -6.4642858,17.103557 -6.4642858,17.103557 z"
               id="path3093"
               style="fill:url(#radialGradient4250);fill-opacity:1;fill-rule:evenodd;stroke:none" />
            <rect
               width="17.625"
               height="5.5625"
               x="7.857996"
               y="36.299183"
               id="rect4174"
               style="color:#000000;fill:url(#linearGradient4209);fill-opacity:1;fill-rule:evenodd;stroke:none;stroke-width:2.40899992;marker:none;visibility:visible;display:inline;overflow:visible" />
            <path
               d="m 7.8579947,41.86168 c 0,0 0,-4.011485 0,-4.011485 1.8355274,3.179226 8.2964903,4.011485 12.9374973,4.011485 0,0 -12.9374973,0 -12.9374973,0 z"
               id="path4194"
               style="opacity:0.81142853;fill:url(#linearGradient4242);fill-opacity:1;fill-rule:evenodd;stroke:none" />
            <path
               d="m 44.796162,30.753688 c 0.06352,1.249974 -0.414003,2.31584 -1.322116,2.34375 0,0 -38.1187164,-10e-7 -38.1187163,0 -1.2892319,0 -1.867736,-0.324947 -2.0840507,-0.868056 0.091761,0.944332 0.8258174,1.649306 2.0840507,1.649306 -1e-7,-10e-7 38.1187163,0 38.1187163,0 1.076007,-0.03307 1.752805,-1.424024 1.352164,-2.994791 l -0.03005,-0.130209 z"
               id="path4201"
               style="fill:#ffffff;fill-opacity:1;fill-rule:evenodd;stroke:none" />
            <path
               d="m 10.96875,15.28125 c -0.04608,0.200321 -0.1875,0.386797 -0.1875,0.59375 0,0.948605 0.59098,1.789474 1.34375,2.59375 0.240268,-0.154075 0.365117,-0.354408 0.625,-0.5 -0.940309,-0.816004 -1.553396,-1.716582 -1.78125,-2.6875 z m 26.65625,0 c -0.228727,0.969616 -0.842012,1.872426 -1.78125,2.6875 0.274144,0.153582 0.403988,0.36824 0.65625,0.53125 0.757262,-0.806656 1.3125,-1.673044 1.3125,-2.625 0,-0.206953 -0.141594,-0.393429 -0.1875,-0.59375 z m 2.1875,8.4375 c -0.613791,4.040111 -7.298613,7.25 -15.53125,7.25 -8.212254,1e-6 -14.8601499,-3.192786 -15.5,-7.21875 -0.032357,0.197132 -0.125,0.391882 -0.125,0.59375 3e-7,4.317947 6.989104,7.843751 15.625,7.84375 8.635896,0 15.656249,-3.525802 15.65625,-7.84375 0,-0.212924 -0.08905,-0.417356 -0.125,-0.625 z"
               id="path4211"
               style="opacity:0.69142857;color:#000000;fill:url(#linearGradient4272);fill-opacity:1;fill-rule:evenodd;stroke:none;stroke-width:2;marker:none;visibility:visible;display:inline;overflow:visible" />
            <path
               d="m 8.5736699,25.593554 a 1.3700194,1.016466 0 1 1 -2.7400389,0 1.3700194,1.016466 0 1 1 2.7400389,0 z"
               transform="translate(0.08838843,5.30178)"
               id="path4224"
               style="color:#000000;fill:#ffffff;fill-opacity:0.45762706;fill-rule:evenodd;stroke:none;stroke-width:2;marker:none;visibility:visible;display:inline;overflow:visible" />
            <path
               d="m 8.5736699,25.593554 a 1.3700194,1.016466 0 1 1 -2.7400389,0 1.3700194,1.016466 0 1 1 2.7400389,0 z"
               transform="translate(33.96705,5.21339)"
               id="path4226"
               style="color:#000000;fill:#ffffff;fill-opacity:0.45762706;fill-rule:evenodd;stroke:none;stroke-width:2;marker:none;visibility:visible;display:inline;overflow:visible" />
            <path
               d="m 11.642515,13.540723 c -0.601692,0 -0.992791,0.279358 -1.233466,0.812287 -10e-7,0 -6.4150149,16.590722 -6.4150149,16.590722 0,0 -0.2406768,0.646515 -0.2406768,1.714823 0,0 0,9.290096 0,9.290096 0,1.35474 0.4440561,1.626899 1.5944841,1.626899 l 37.6869046,0 c 1.323126,0 1.534316,-0.316397 1.534316,-1.837492 l 0,-9.290096 c 0,0 0.10201,-0.741691 -0.09025,-1.263553 L 37.885616,14.378434 c -0.177643,-0.492817 -0.550652,-0.82625 -1.020545,-0.837711 l -25.222556,0 z"
               id="path4252"
               style="fill:none;stroke:url(#linearGradient4260);stroke-width:1.00000024;stroke-linecap:round;stroke-linejoin:round;stroke-miterlimit:4;stroke-opacity:1;stroke-dasharray:none" />
            <path
               d="m 40.5,36.554166 0,5.020935"
               id="path4282"
               style="fill:none;stroke:#ffffff;stroke-width:1.00000048px;stroke-linecap:square;stroke-linejoin:miter;stroke-opacity:0.42372885" />
            <path
               d="m 38.5,36.613943 0,5.020935"
               id="path4284"
               style="fill:none;stroke:#ffffff;stroke-width:1.00000048px;stroke-linecap:square;stroke-linejoin:miter;stroke-opacity:0.42372885" />
            <path
               d="m 36.5,36.613943 0,5.020935"
               id="path4286"
               style="fill:none;stroke:#ffffff;stroke-width:1.00000048px;stroke-linecap:square;stroke-linejoin:miter;stroke-opacity:0.42372885" />
            <path
               d="m 34.5,36.613943 0,5.020935"
               id="path4288"
               style="fill:none;stroke:#ffffff;stroke-width:1.00000048px;stroke-linecap:square;stroke-linejoin:miter;stroke-opacity:0.42372885" />
            <path
               d="m 32.5,36.613943 0,5.020935"
               id="path4290"
               style="fill:none;stroke:#ffffff;stroke-width:1.00000048px;stroke-linecap:square;stroke-linejoin:miter;stroke-opacity:0.42372885" />
            <path
               d="m 30.5,36.613943 0,5.020935"
               id="path4292"
               style="fill:none;stroke:#ffffff;stroke-width:1.00000048px;stroke-linecap:square;stroke-linejoin:miter;stroke-opacity:0.42372885" />
            <path
               d="m 39.5,36.604065 0,5.020935"
               id="path4294"
               style="opacity:0.09714284;fill:none;stroke:#000000;stroke-width:1.00000048px;stroke-linecap:square;stroke-linejoin:miter;stroke-opacity:1" />
            <path
               d="m 37.5,36.663842 0,5.020935"
               id="path4296"
               style="opacity:0.09714284;fill:none;stroke:#000000;stroke-width:1.00000048px;stroke-linecap:square;stroke-linejoin:miter;stroke-opacity:1" />
            <path
               d="m 35.5,36.663842 0,5.020935"
               id="path4298"
               style="opacity:0.09714284;fill:none;stroke:#000000;stroke-width:1.00000048px;stroke-linecap:square;stroke-linejoin:miter;stroke-opacity:1" />
            <path
               d="m 33.5,36.663842 0,5.020935"
               id="path4300"
               style="opacity:0.09714284;fill:none;stroke:#000000;stroke-width:1.00000048px;stroke-linecap:square;stroke-linejoin:miter;stroke-opacity:1" />
            <path
               d="m 31.5,36.663842 0,5.020935"
               id="path4302"
               style="opacity:0.09714284;fill:none;stroke:#000000;stroke-width:1.00000048px;stroke-linecap:square;stroke-linejoin:miter;stroke-opacity:1" />
            <path
               d="m 7.875,36.3125 0,5.53125 12.5625,0 L 8.21875,41.5 7.875,36.3125 z"
               id="path4572"
               style="opacity:0.43999999;fill:#ffffff;fill-opacity:1;fill-rule:evenodd;stroke:none" />
            <path
               d="m 39.875,19.5625 a 14.875,6.6875 0 1 1 -29.75,0 14.875,6.6875 0 1 1 29.75,0 z"
               transform="matrix(1.037815,0,0,1.060747,-1.632878,3.03037)"
               id="path2545"
               style="opacity:0.20571427;color:#000000;fill:url(#linearGradient2553);fill-opacity:1;fill-rule:evenodd;stroke:none;stroke-width:0.93365198;marker:none;visibility:visible;display:inline;overflow:visible" />
          </g>
          <g
             id="layer1-2">
            <path
               d="m 40.481863,36.421127 a 15.644737,8.3968935 0 1 1 -31.2894745,0 15.644737,8.3968935 0 1 1 31.2894745,0 z"
               transform="matrix(1.13019,0,0,-0.759601,-3.909725,53.66554)"
               id="path8660"
               style="opacity:0.14117647;color:#000000;fill:url(#radialGradient8668);fill-opacity:1;fill-rule:evenodd;stroke:none;stroke-width:1;marker:none;visibility:visible;display:inline;overflow:visible" />
            <path
               d="M 3.2034501,25.835194 C 2.1729477,-5.3853369 28.741616,-0.4511153 28.582416,15.788689 l 7.312914,0 L 24.517652,28.774671 12.585426,15.788689 c 0,0 7.541433,0 7.541433,0 C 20.583921,4.8193225 3.4092324,1.6100346 3.2034501,25.835194 z"
               id="path1432"
               style="color:#000000;fill:url(#linearGradient6907);fill-opacity:1;fill-rule:nonzero;stroke:url(#linearGradient6931);stroke-width:0.99999982;stroke-linecap:butt;stroke-linejoin:miter;stroke-miterlimit:4;stroke-opacity:1;stroke-dasharray:none;stroke-dashoffset:0;marker:none;visibility:visible;display:block;overflow:visible" />
            <path
               d="M 7.6642103,9.1041047 C 12.40638,-0.0400306 28.122336,2.7175443 27.761604,16.579393 l 6.317372,0 c 0,0 -9.565825,10.957376 -9.565825,10.957376 L 14.41668,16.579393 c 0,0 6.45664,0 6.45664,0 C 21.144975,5.0041615 10.922265,5.5345215 7.6642103,9.1041047 z"
               id="path2177"
               style="opacity:0.47159095;color:#000000;fill:none;stroke:url(#linearGradient1764);stroke-width:0.99999934;stroke-linecap:butt;stroke-linejoin:miter;stroke-miterlimit:10;stroke-opacity:1;stroke-dasharray:none;stroke-dashoffset:0;marker:none;visibility:visible;display:block;overflow:visible" />
            <path
               d="m 34.767155,16.211613 -1.984176,2.545709 c -5.410032,-1.516293 -7.88615,2.729342 -15.673695,1.73179 l -3.861286,-4.409035 7.18647,0.08279 C 20.483219,4.3164571 8.3443098,4.998966 5.0292663,13.627829 8.8372201,-1.2611216 27.893316,0.8064118 28.28332,16.114112 l 6.483835,0.0975 z"
               id="path4989"
               style="opacity:0.49431817;color:#000000;fill:url(#radialGradient4997);fill-opacity:1;fill-rule:nonzero;stroke:none;stroke-width:0.9999997;marker:none;visibility:visible;display:inline;overflow:visible" />
            <rect
               width="39.247944"
               height="12.278223"
               rx="1.6249996"
               ry="1.6249996"
               x="4.5635238"
               y="30.298382"
               id="rect6951"
               style="color:#000000;fill:url(#linearGradient6971);fill-opacity:1;fill-rule:nonzero;stroke:#7d7d7d;stroke-width:0.99999976;stroke-linecap:round;stroke-linejoin:miter;stroke-miterlimit:4;stroke-opacity:1;stroke-dasharray:none;stroke-dashoffset:0;marker:none;visibility:visible;display:block;overflow:visible" />
            <rect
               width="16"
               height="7"
               ry="0"
               x="7"
               y="33"
               id="rect6953"
               style="opacity:0.59659095;color:#000000;fill:#7d7d7d;fill-opacity:1;fill-rule:nonzero;stroke:none;stroke-width:1;marker:none;visibility:visible;display:block;overflow:visible" />
            <rect
               width="1"
               height="9"
               x="24"
               y="32"
               id="rect6957"
               style="color:#000000;fill:#000000;fill-opacity:1;fill-rule:nonzero;stroke:none;stroke-width:1;marker:none;visibility:visible;display:block;overflow:visible" />
          </g>
        </g>
      </g>
    </g>
  </g>
</svg>
